{"title":"Due Date 720p BRRip x264.Feel-Free","uid":6141959,"size":2404056830,"categoryP":"video","categoryS":"hd___movies","magnet":"?xt=urn:btih:faa0e15e558d3cb81bed649345aab152d096376a&amp;dn=Due+Date+720p+BRRip+x264.Feel-Free&amp;tr=udp%3A%2F%2Ftracker.openbittorrent.com%3A80&amp;tr=udp%3A%2F%2Fopen.demonii.com%3A1337&amp;tr=udp%3A%2F%2Ftracker.coppersurfer.tk%3A6969&amp;tr=udp%3A%2F%2Fexodus.desync.com%3A6969","seeders":0,"leechers":1,"uploader":"neon","files":-1,"time":1296535535,"description":"Genre:Comedy\nLanguage:English\n &lt;a href=&quot; http://www.imdb.com/title/tt1231583/&quot; rel=&quot;nofollow&quot; target=&quot;_NEW&quot;&gt; http://www.imdb.com/title/tt1231583/&lt;/a&gt;\nSource:BluRay.x264-CROSSBOW\nSubtitles:Romana\n\n\nFormat : MPEG-4\nFormat profile : Base Media\nCodec ID : isom\nFile size : 2.23 GiB\nDuration : 1h 35mn\nOverall bit rate : 3 356 Kbps\n\n\nVideo\nFormat settings, CABAC : Yes\nFormat settings, ReFrames : 3 frames\nCodec ID : avc1\nCodec ID/Info : Advanced Video Coding\nDuration : 1h 35mn\nBit rate mode : Variable\nBit rate : 2 982 Kbps\nMaximum bit rate : 16.0 Mbps\nWidth : 1 280 pixels\nHeight : 528 pixels\nDisplay aspect ratio : 2.40:1\nFrame rate mode : Constant\nFrame rate : 23.976 fps\nColor space : YUV\nChroma subsampling : 4:2:0\nBit depth : 8 bits\nScan type : Progressive\nBits/(Pixel*Frame) : 0.184\nStream size : 1.94 GiB (87%)\nWriting library : x264\n\n\nAudio\nID : 2\nFormat : AAC\nFormat/Info : Advanced Audio Codec\nFormat version : Version 4\nFormat profile : LC\nFormat settings, SBR : No\nCodec ID : 40\nDuration : 1h 35mn\nBit rate mode : Variable\nBit rate : 442 Kbps\nMaximum bit rate : 541 Kbps\nChannel(s) : 6 channels\nChannel positions : Front: L C R, Side: L R, LFE\nSampling rate : 48.0 KHz\nStream size : 301 MiB (13%)\n\n\n\nPlot:\nHigh-strung father-to-be Peter Highman is forced to hitch a ride with aspiring actor Ethan Tremblay on a road trip in order to make it to his child's birth on time\n &lt;a href=&quot;\nhttp://rapidhdd.com/images/664021vlcsnap-00001.png&quot; rel=&quot;nofollow&quot; target=&quot;_NEW&quot;&gt;\nhttp://rapidhdd.com/images/664021vlcsnap-00001.png&lt;/a&gt; &lt;a href=&quot;\nhttp://www.rapidhdd.com/images/428400vlcsnap-00002.png&quot; rel=&quot;nofollow&quot; target=&quot;_NEW&quot;&gt;\nhttp://www.rapidhdd.com/images/428400vlcsnap-00002.png&lt;/a&gt; &lt;a href=&quot;\nhttp://www.rapidhdd.com/images/51057vlcsnap-00003.png&quot; rel=&quot;nofollow&quot; target=&quot;_NEW&quot;&gt;\nhttp://www.rapidhdd.com/images/51057vlcsnap-00003.png&lt;/a&gt; &lt;a href=&quot;\nhttp://www.rapidhdd.com/images/260070vlcsnap-00004.png&quot; rel=&quot;nofollow&quot; target=&quot;_NEW&quot;&gt;\nhttp://www.rapidhdd.com/images/260070vlcsnap-00004.png&lt;/a&gt; &lt;a href=&quot;\nhttp://www.rapidhdd.com/images/26548vlcsnap-00007.png&quot; rel=&quot;nofollow&quot; target=&quot;_NEW&quot;&gt;\nhttp://www.rapidhdd.com/images/26548vlcsnap-00007.png&lt;/a&gt; &lt;a href=&quot;\nhttp://www.rapidhdd.com/images/303511vlcsnap-00005.png&quot; rel=&quot;nofollow&quot; target=&quot;_NEW&quot;&gt;\nhttp://www.rapidhdd.com/images/303511vlcsnap-00005.png&lt;/a&gt;","torrent":{"xt":"urn:btih:faa0e15e558d3cb81bed649345aab152d096376a","amp;dn":"Due+Date+720p+BRRip+x264.Feel-Free","amp;tr":["udp%3A%2F%2Ftracker.openbittorrent.com%3A80","udp%3A%2F%2Fopen.demonii.com%3A1337","udp%3A%2F%2Ftracker.coppersurfer.tk%3A6969","udp%3A%2F%2Fexodus.desync.com%3A6969"],"infoHash":"faa0e15e558d3cb81bed649345aab152d096376a","infoHashBuffer":{"type":"Buffer","data":[250,160,225,94,85,141,60,184,27,237,100,147,69,170,177,82,208,150,55,106]},"announce":[],"urlList":[]}}